<svg xmlns="http://www.w3.org/2000/svg" height="2048" preserveAspectRatio="none" style="display: block;" version="1.1" viewBox="0 0 2048 2048" width="2048">

<path d="M 637.813 806.199 C 700.76 804.879 765.62 806.326 828.705 806.306 L 887.307 806.299 C 932.332 806.306 961.736 803.888 996.342 838.049 C 1035.62 876.828 1029.72 920.673 1029.56 970.495 L 1029.45 1083.39 L 1029.63 1541.48 C 1022.15 1537.2 1013.86 1531.8 1006.46 1527.22 L 773.973 1382.2 C 730.566 1355.07 679.753 1325.22 637.92 1296.94 C 650.65 1272.69 670.684 1245.14 673.979 1217.24 C 675.833 1201.55 675.05 1182.12 675.063 1165.99 L 675.068 1087.43 C 675.067 1020.26 675.1 953.08 675.124 885.906 C 675.125 882.011 674.774 876.464 673.152 872.97 C 662.542 850.109 648.582 829.091 637.813 806.199 z" fill="rgb(194,14,26)" transform="translate(0,0)"></path>

<path d="M 1051.06 808.287 L 1234.9 808.273 C 1247.58 808.264 1260.71 808.306 1273.14 808.217 C 1317.37 807.901 1356.1 804.013 1390.01 838.444 C 1414.4 863.211 1423.76 891.274 1424.01 925.98 L 1423.98 1029.22 C 1424.01 1056.31 1425.88 1101.54 1419.82 1125.95 C 1414.53 1147.08 1403.7 1166.41 1388.44 1181.95 C 1375.36 1195.21 1358.97 1204.72 1340.97 1209.5 C 1322.25 1214.31 1283.82 1212.74 1263.2 1212.7 L 1173.56 1212.62 L 1173.61 1288.25 L 1173.74 1464.56 L 1050.88 1537.16 L 1051.06 808.287 z" fill="rgb(255,255,255)" transform="translate(0,0)"></path>

<path d="M 1313.19 505.336 C 1313.59 505.508 1315.44 506.25 1315.99 506.665 C 1366.12 544.611 1408.56 602.969 1424.66 663.328 C 1440.16 721.428 1427.9 766.1 1399.97 815.601 C 1387.66 803.595 1377.56 797.382 1361.7 790.929 C 1330.58 779.769 1278.28 782.75 1243.44 782.632 C 1279.62 751.528 1308.83 723.288 1326.54 677.022 C 1348.61 619.391 1338.2 560.095 1313.19 505.336 z" fill="rgb(194,14,26)" transform="translate(0,0)"></path>
<path d="M 737.862 503.497 C 689.068 600.689 710.325 700.893 793.415 769.753 C 797.316 772.987 801.209 776.298 805.126 779.527 L 807.709 781.104 L 807.263 782.25 C 803.275 782.872 802.427 782.955 798.405 782.935 C 743.587 783.229 688.769 783.231 633.951 782.941 C 623 754.312 614.71 722.435 619.208 691.668 C 630.659 613.354 678.355 551.24 737.862 503.497 z" fill="rgb(194,14,26)" transform="translate(0,0)"></path>
<metadata><recraft-signature>{"signed_by": "recraft", "signature_b64": "RZ8qr3X3sxzoXEC2CpzDx6Dtl4aGs2Ompb0JWmVfuXLMJ49Lx3492Xhjo7SmIEXy7UaSIgvf4HGuXUQtQzOUAQ==", "signing_algo": "Ed25519", "generation_timestamp": 1781979409, "identifier": "ac7d0ad2-fe4f-446f-80a5-a9d1300dd2fc"}</recraft-signature></metadata></svg>